<?xml version="1.0" encoding="UTF-8" standalone="no"?>
<!--
About Us Page SVG Asset
BLOODWIING, Weirdoverse & ElMinor © 2022
GITHUB: https://github.com/bloodwiing/AboutUsUni
-->

<!-- Created with Inkscape (http://www.inkscape.org/) -->

<svg
   width="150.00006"
   height="75.000015"
   viewBox="0 0 150.00006 75.000015"
   version="1.1"
   id="svg5"
   sodipodi:docname="logo.svg"
   inkscape:version="1.2 (dc2aedaf03, 2022-05-15)"
   xmlns:inkscape="http://www.inkscape.org/namespaces/inkscape"
   xmlns:sodipodi="http://sodipodi.sourceforge.net/DTD/sodipodi-0.dtd"
   xmlns="http://www.w3.org/2000/svg"
   xmlns:svg="http://www.w3.org/2000/svg">
  <sodipodi:namedview
     id="namedview7"
     pagecolor="#171717"
     bordercolor="#999999"
     borderopacity="1"
     inkscape:pageshadow="0"
     inkscape:pageopacity="0"
     inkscape:pagecheckerboard="0"
     inkscape:document-units="px"
     showgrid="false"
     units="px"
     inkscape:zoom="4.1505694"
     inkscape:cx="96.372318"
     inkscape:cy="66.015038"
     inkscape:window-width="3440"
     inkscape:window-height="1417"
     inkscape:window-x="-8"
     inkscape:window-y="-8"
     inkscape:window-maximized="1"
     inkscape:current-layer="layer1"
     inkscape:object-paths="true"
     inkscape:snap-intersection-paths="true"
     inkscape:snap-smooth-nodes="true"
     inkscape:snap-midpoints="true"
     inkscape:snap-object-midpoints="true"
     showguides="false"
     inkscape:snap-global="true"
     inkscape:showpageshadow="0"
     inkscape:deskcolor="#171717">
    <inkscape:grid
       type="xygrid"
       id="grid836"
       originx="-262.76103"
       originy="-313.61148" />
  </sodipodi:namedview>
  <defs
     id="defs2" />
  <g
     inkscape:label="Layer 1"
     inkscape:groupmode="layer"
     id="layer1"
     transform="translate(-262.76103,-313.61148)">
    <g
       id="g6827">
      <g
         aria-label="YourCompany"
         id="text184"
         style="font-weight:bold;font-size:26.289px;line-height:0.9;font-family:'Tw Cen MT';-inkscape-font-specification:'Tw Cen MT Bold';text-align:center;text-anchor:middle;fill:#ffffff;stroke-width:0.944881;stroke-linecap:round;stroke-linejoin:round;paint-order:fill markers stroke">
        <path
           d="m 262.76103,373.04091 q 1.18095,-0.1412 2.68923,-0.1412 1.0911,0 2.06025,0.0642 0.12195,0.006 0.23747,0.077 0.11553,0.0706 0.15404,0.17971 0.60973,1.8677 1.64306,5.59668 0.99483,-3.60061 1.64948,-5.59668 0.0385,-0.10911 0.15404,-0.17971 0.11553,-0.0706 0.23747,-0.077 0.96915,-0.0642 2.06025,-0.0642 1.50828,0 2.68923,0.1412 -1.01408,4.31946 -2.14368,6.54658 -0.80228,1.3735 -2.07308,2.41966 0.0513,4.24244 0.0642,6.34762 -1.21946,0.0578 -2.29772,0.0578 -1.11035,0 -2.68281,-0.0578 -0.1027,0 -0.17971,-0.077 -0.077,-0.077 -0.077,-0.17971 0,-1.91905 0.0385,-6.09089 -1.29006,-1.06542 -2.08592,-2.41966 -1.11677,-2.20145 -2.13727,-6.54658 z"
           style="font-family:Digitalt;-inkscape-font-specification:'Digitalt Bold'"
           id="path6791" />
        <path
           d="m 276.13659,380.64649 q 0,-1.8677 0.40435,-3.32463 0.40434,-1.46335 1.16169,-2.43892 0.76377,-0.97557 1.84203,-1.50828 1.08468,-0.53271 2.44534,-0.60331 1.25155,0 2.23354,0.17329 0.98198,0.16687 1.7971,0.55196 0.82153,0.37868 1.39917,0.98841 0.57763,0.60973 0.97556,1.48261 0.40435,0.87287 0.59048,2.03457 0.19255,1.1617 0.19255,2.6443 0,1.8677 -0.41077,3.33106 -0.41077,1.45693 -1.18737,2.4325 -0.77018,0.96915 -1.85486,1.50186 -1.08468,0.52629 -2.45176,0.59689 -1.24513,0 -2.22712,-0.16687 -0.97557,-0.17329 -1.79068,-0.55197 -0.8087,-0.37867 -1.38633,-0.98198 -0.57123,-0.60973 -0.96916,-1.48261 -0.39151,-0.87288 -0.57763,-2.02815 -0.18613,-1.1617 -0.18613,-2.65073 z m 5.36562,0 q 0,0.89855 0.0578,1.52754 0.0642,0.62898 0.15403,0.99482 0.0963,0.35942 0.25673,0.55839 0.16046,0.19896 0.32091,0.25672 0.16046,0.0578 0.39151,0.0578 0.23106,0 0.3851,-0.0578 0.15403,-0.0578 0.30807,-0.25672 0.15404,-0.19897 0.23748,-0.55839 0.0899,-0.36584 0.1412,-0.99482 0.0578,-0.62899 0.0578,-1.52754 0,-0.74451 -0.0385,-1.30289 -0.0385,-0.56481 -0.12195,-0.93064 -0.0834,-0.36584 -0.17971,-0.5969 -0.0963,-0.23747 -0.25031,-0.353 -0.14761,-0.11553 -0.28882,-0.15404 -0.13478,-0.0449 -0.32732,-0.0449 -0.19255,0 -0.32733,0.0385 -0.12837,0.0385 -0.26315,0.16046 -0.13478,0.11553 -0.22464,0.353 -0.0834,0.23106 -0.15403,0.60331 -0.0706,0.36584 -0.1027,0.92423 -0.0321,0.55196 -0.0321,1.30289 z"
           style="font-family:Digitalt;-inkscape-font-specification:'Digitalt Bold'"
           id="path6793" />
        <path
           d="m 290.0256,380.74918 q 0,-3.69047 0.10269,-7.79812 1.21946,-0.0578 2.24637,-0.0578 1.05901,0 2.63147,0.0578 0.10269,0 0.17971,0.077 0.077,0.077 0.077,0.17971 0.10269,4.8265 0.10269,8.31801 0,0.84078 0.0578,1.36708 0.0578,0.52629 0.19896,0.80227 0.1412,0.26957 0.31449,0.35942 0.17329,0.0899 0.4557,0.0899 0.37867,0 0.57122,-0.17329 0.19254,-0.17329 0.29523,-0.74452 0.10911,-0.57763 0.10911,-1.70724 0,-4.46066 0.1027,-8.56831 1.22587,-0.0578 2.24637,-0.0578 1.05901,0 2.63147,0.0578 0.10269,0 0.17971,0.077 0.077,0.077 0.077,0.17971 0.10269,4.8265 0.10269,7.5414 0,1.64949 -0.25031,2.93313 -0.25031,1.28364 -0.71884,2.18861 -0.46853,0.89855 -1.18095,1.49544 -0.70601,0.5969 -1.5853,0.89213 -0.8793,0.29524 -1.98965,0.35301 -0.90497,0 -1.63022,-0.077 -0.72526,-0.0706 -1.40559,-0.2439 -0.68033,-0.17329 -1.20021,-0.46211 -0.51987,-0.29523 -0.97557,-0.72525 -0.44927,-0.43644 -0.76376,-1.02692 -0.3145,-0.59689 -0.54555,-1.3735 -0.22464,-0.7766 -0.33375,-1.75859 -0.10269,-0.9884 -0.10269,-2.19503 z"
           style="font-family:Digitalt;-inkscape-font-specification:'Digitalt Bold'"
           id="path6795" />
        <path
           d="m 304.12,380.31916 q 0,-1.28364 0.0257,-3.55569 0.0257,-2.27204 0.0257,-3.55569 1.28364,-0.19896 2.72774,-0.31449 1.45052,-0.12194 2.5352,-0.12194 0.93706,0 1.57246,0.0321 0.6354,0.0257 1.36708,0.12836 0.73809,0.0963 1.21304,0.2824 0.47495,0.18613 0.9499,0.51346 0.47494,0.32733 0.73809,0.79586 0.26956,0.46853 0.43644,1.14886 0.16687,0.68033 0.16687,1.55962 0,1.39276 -0.71884,2.45176 -0.71884,1.05901 -2.00248,1.66232 0.87288,0.30165 1.41842,1.2323 1.27723,2.50952 2.041,5.77639 -1.18095,0.1412 -2.68923,0.1412 -1.0911,0 -2.06025,-0.0642 -0.12195,-0.006 -0.23747,-0.077 -0.11553,-0.0706 -0.15404,-0.17971 -1.25155,-3.79959 -1.94472,-6.13581 h -0.34017 q 0.0128,0.71884 0.0578,2.94596 0.0513,2.22711 0.0578,3.36956 -1.05258,0.0449 -2.25279,0.0449 -1.08468,0 -2.62505,-0.0449 -0.10911,0 -0.18613,-0.0706 -0.0706,-0.077 -0.0706,-0.18613 0,-1.18737 -0.0257,-3.83167 -0.0257,-2.64431 -0.0257,-3.94721 z m 5.05755,-1.43768 h 0.43644 q 0.60973,0 0.98198,-0.30165 0.37868,-0.30808 0.37868,-0.8087 0,-0.62898 -0.25673,-0.93064 -0.25673,-0.30807 -0.91139,-0.30807 -0.33374,0 -0.61615,0.0192 -0.0128,1.50187 -0.0128,2.32981 z"
           style="font-family:Digitalt;-inkscape-font-specification:'Digitalt Bold'"
           id="path6797" />
        <path
           d="m 317.05911,380.64649 q 0,-1.78426 0.32091,-3.13208 0.32733,-1.35425 0.91139,-2.24638 0.58406,-0.89855 1.46977,-1.45693 0.89213,-0.56481 1.95114,-0.80228 1.059,-0.23747 2.40683,-0.23747 0.71884,0 1.35424,0.10911 0.64182,0.10269 1.57246,0.32732 l -0.55197,4.02422 -2.36832,-0.16045 q -0.30165,-0.0193 -0.53913,0.0513 -0.23747,0.0706 -0.46211,0.30166 -0.22464,0.23106 -0.37225,0.62899 -0.14762,0.39151 -0.23748,1.04616 -0.0899,0.65466 -0.0899,1.54679 0,0.89855 0.077,1.55321 0.0834,0.64824 0.21821,1.05259 0.14121,0.39793 0.35942,0.62256 0.22464,0.22464 0.46853,0.30166 0.2439,0.0706 0.57764,0.0449 l 2.36832,-0.15404 0.5263,4.05631 q -1.53396,0.2824 -2.95238,0.2824 -0.75093,0 -1.37992,-0.0513 -0.62898,-0.0578 -1.24513,-0.18613 -0.60973,-0.13478 -1.11035,-0.34658 -0.50062,-0.21181 -0.96273,-0.53913 -0.4557,-0.32733 -0.8087,-0.75735 -0.353,-0.43644 -0.64182,-1.01408 -0.28882,-0.57764 -0.47495,-1.29648 -0.18612,-0.71884 -0.28882,-1.61097 -0.0963,-0.89855 -0.0963,-1.95756 z"
           style="font-family:Digitalt;-inkscape-font-specification:'Digitalt Bold'"
           id="path6799" />
        <path
           d="m 327.71335,380.64649 q 0,-1.8677 0.40434,-3.32463 0.40435,-1.46335 1.1617,-2.43892 0.76377,-0.97557 1.84203,-1.50828 1.08468,-0.53271 2.44534,-0.60331 1.25155,0 2.23354,0.17329 0.98198,0.16687 1.79709,0.55196 0.82154,0.37868 1.39918,0.98841 0.57763,0.60973 0.97556,1.48261 0.40435,0.87287 0.59048,2.03457 0.19255,1.1617 0.19255,2.6443 0,1.8677 -0.41077,3.33106 -0.41077,1.45693 -1.18737,2.4325 -0.77019,0.96915 -1.85486,1.50186 -1.08468,0.52629 -2.45176,0.59689 -1.24513,0 -2.22712,-0.16687 -0.97557,-0.17329 -1.79068,-0.55197 -0.8087,-0.37867 -1.38634,-0.98198 -0.57122,-0.60973 -0.96915,-1.48261 -0.39151,-0.87288 -0.57763,-2.02815 -0.18613,-1.1617 -0.18613,-2.65073 z m 5.36562,0 q 0,0.89855 0.0578,1.52754 0.0642,0.62898 0.15403,0.99482 0.0963,0.35942 0.25673,0.55839 0.16046,0.19896 0.32091,0.25672 0.16046,0.0578 0.39151,0.0578 0.23106,0 0.3851,-0.0578 0.15403,-0.0578 0.30807,-0.25672 0.15404,-0.19897 0.23747,-0.55839 0.0899,-0.36584 0.14121,-0.99482 0.0578,-0.62899 0.0578,-1.52754 0,-0.74451 -0.0385,-1.30289 -0.0385,-0.56481 -0.12195,-0.93064 -0.0834,-0.36584 -0.17971,-0.5969 -0.0963,-0.23747 -0.25031,-0.353 -0.14762,-0.11553 -0.28882,-0.15404 -0.13478,-0.0449 -0.32732,-0.0449 -0.19255,0 -0.32733,0.0385 -0.12837,0.0385 -0.26315,0.16046 -0.13478,0.11553 -0.22464,0.353 -0.0834,0.23106 -0.15403,0.60331 -0.0706,0.36584 -0.1027,0.92423 -0.0321,0.55196 -0.0321,1.30289 z"
           style="font-family:Digitalt;-inkscape-font-specification:'Digitalt Bold'"
           id="path6801" />
        <path
           d="m 342.09014,380.65291 q 0,-3.5942 0.10269,-7.70185 1.21946,-0.0578 2.11801,-0.0578 1.07826,0 2.2207,0.0578 0.18613,0.006 0.2824,0.25672 l 3.22195,6.57225 3.22194,-6.57225 q 0.17971,-0.23747 0.31449,-0.25031 0.80228,-0.0642 1.80352,-0.0642 1.07826,0 2.37474,0.0578 0.10911,0.006 0.17971,0.0834 0.077,0.0706 0.077,0.17329 0.10269,4.8265 0.10269,7.44513 0,3.5942 -0.10269,7.70186 -1.10394,0.0578 -1.98965,0.0578 -0.80228,0 -2.37474,-0.0578 -0.10269,0 -0.17971,-0.077 -0.077,-0.077 -0.077,-0.17971 -0.0192,-0.71884 -0.0578,-2.1501 -0.0385,-1.43768 -0.0642,-2.6058 -0.0257,-1.17453 -0.0321,-2.24637 l -2.92671,5.97535 -0.2824,0.0514 -0.25673,-0.0514 -2.7855,-5.68653 0.0899,6.97018 q -1.21946,0.0578 -2.11801,0.0578 -0.93064,0 -2.5031,-0.0578 -0.10269,0 -0.17971,-0.077 -0.077,-0.077 -0.077,-0.17971 -0.10269,-4.8265 -0.10269,-7.44513 z"
           style="font-family:Digitalt;-inkscape-font-specification:'Digitalt Bold'"
           id="path6803" />
        <path
           d="m 360.00979,380.65291 q 0,-1.29006 0.0257,-3.74182 0.0257,-2.45175 0.0257,-3.70331 2.84327,-0.43643 5.00621,-0.43643 1.03333,0 1.75859,0.0449 0.73167,0.0449 1.50828,0.19255 0.78302,0.14762 1.30289,0.41718 0.51988,0.26315 1.00766,0.71243 0.48779,0.44927 0.76377,1.09109 0.2824,0.6354 0.44927,1.54679 0.16688,0.90497 0.16688,2.07308 0,0.8087 -0.0963,1.48903 -0.0963,0.68033 -0.27598,1.2323 -0.17971,0.54554 -0.46211,0.9884 -0.27598,0.44286 -0.62257,0.78302 -0.34016,0.33375 -0.78944,0.58406 -0.44285,0.25031 -0.93706,0.4236 -0.4942,0.16688 -1.09751,0.26957 -0.60331,0.10269 -1.2323,0.14762 -0.62256,0.0449 -1.36708,0.0449 0.0514,2.95238 0.0514,3.54286 -1.20021,0.0513 -2.25921,0.0513 -0.86004,0 -2.61863,-0.0513 -0.10269,0 -0.17971,-0.077 -0.077,-0.077 -0.077,-0.17971 0,-1.18737 -0.0257,-3.6648 -0.0257,-2.47743 -0.0257,-3.78033 z m 5.08323,-0.0513 h 0.40435 q 0.23747,0 0.40434,-0.0257 0.17329,-0.0257 0.353,-0.12194 0.18613,-0.10269 0.29524,-0.27599 0.11553,-0.17971 0.18613,-0.4942 0.077,-0.31449 0.077,-0.75735 0,-0.43002 -0.0128,-0.68675 -0.006,-0.26314 -0.0578,-0.48136 -0.0449,-0.21822 -0.11553,-0.32091 -0.0642,-0.10269 -0.20538,-0.17971 -0.1412,-0.077 -0.30808,-0.0899 -0.16045,-0.0192 -0.43643,-0.0192 h -0.58406 z"
           style="font-family:Digitalt;-inkscape-font-specification:'Digitalt Bold'"
           id="path6805" />
        <path
           d="m 371.76154,388.14297 q 0,-0.1027 0.12195,-0.80228 0.34016,-2.11159 0.7766,-4.3708 0.43644,-2.26563 1.12961,-5.61594 0.69316,-3.35673 0.90496,-4.40289 1.28365,-0.0578 3.53002,-0.0578 2.09234,0 3.65838,0.0578 0.10269,0 0.19255,0.077 0.0899,0.0706 0.10911,0.17971 0.2824,1.43127 0.95631,4.67888 0.68033,3.24762 1.15528,5.7443 0.48137,2.49027 0.82153,4.72381 -1.21304,0.0578 -2.23354,0.0578 -1.63664,0 -2.51594,-0.0578 -0.10911,-0.006 -0.19896,-0.077 -0.0834,-0.077 -0.10269,-0.17971 -0.28882,-1.47619 -0.46853,-2.56729 h -2.38116 q -0.20538,1.3735 -0.4942,2.82402 -1.2323,0.0578 -2.12443,0.0578 -1.06542,0 -2.62505,-0.0578 -0.0963,0 -0.15404,-0.0578 -0.0578,-0.0642 -0.0578,-0.15403 z m 5.8855,-5.94969 h 1.4441 q -0.15404,-1.05258 -0.41718,-2.9973 -0.26315,-1.95114 -0.37868,-2.75983 -0.12836,1.04616 -0.34016,3.00372 -0.2118,1.95114 -0.30808,2.75341 z"
           style="font-family:Digitalt;-inkscape-font-specification:'Digitalt Bold'"
           id="path6807" />
        <path
           d="m 386.04207,380.65291 q 0,-3.5942 0.10269,-7.70185 1.21946,-0.0578 2.11801,-0.0578 0.76376,0 2.2207,0.0578 0.18613,0.006 0.2824,0.25672 l 2.65714,6.57225 -0.0898,-6.82897 q 1.22587,-0.0578 2.24637,-0.0578 1.00124,0 2.37474,0.0578 0.10911,0.006 0.17971,0.0834 0.077,0.0706 0.077,0.17329 0.10269,4.8265 0.10269,7.44513 0,3.5942 -0.10269,7.70186 -1.06543,0.0578 -1.98965,0.0578 -1.09751,0 -2.34906,-0.0578 -0.19255,-0.006 -0.28241,-0.25673 l -2.65714,-6.57225 0.0899,6.82898 q -1.21946,0.0578 -2.11801,0.0578 -1.01408,0 -2.5031,-0.0578 -0.10911,-0.006 -0.18613,-0.077 -0.0706,-0.077 -0.0706,-0.17971 -0.10269,-4.8265 -0.10269,-7.44513 z"
           style="font-family:Digitalt;-inkscape-font-specification:'Digitalt Bold'"
           id="path6809" />
        <path
           d="m 399.18657,373.04091 q 1.18095,-0.1412 2.68923,-0.1412 1.0911,0 2.06025,0.0642 0.12194,0.006 0.23747,0.077 0.11553,0.0706 0.15404,0.17971 0.60973,1.8677 1.64306,5.59668 0.99482,-3.60061 1.64948,-5.59668 0.0385,-0.10911 0.15404,-0.17971 0.11553,-0.0706 0.23747,-0.077 0.96915,-0.0642 2.06025,-0.0642 1.50828,0 2.68923,0.1412 -1.01408,4.31946 -2.14368,6.54658 -0.80228,1.3735 -2.07309,2.41966 0.0513,4.24244 0.0642,6.34762 -1.21947,0.0578 -2.29772,0.0578 -1.11036,0 -2.68282,-0.0578 -0.10269,0 -0.17971,-0.077 -0.077,-0.077 -0.077,-0.17971 0,-1.91905 0.0385,-6.09089 -1.29006,-1.06542 -2.08592,-2.41966 -1.11677,-2.20145 -2.13726,-6.54658 z"
           style="font-family:Digitalt;-inkscape-font-specification:'Digitalt Bold'"
           id="path6811" />
      </g>
      <path
         id="path338"
         style="fill:#ffffff;fill-opacity:1;stroke-width:0.944881;stroke-linecap:round;stroke-linejoin:round;paint-order:fill markers stroke"
         d="m 332.53663,313.61157 a 16.608484,27.244199 0 0 0 -14.03449,12.69522 9.237303,15.152672 0 0 0 -2.57583,-0.60331 9.237303,15.152672 0 0 0 -9.23796,15.15553 h 13.27715 a 17.794313,17.794313 0 0 1 17.79556,-17.79556 17.794313,17.794313 0 0 1 17.79555,17.79556 h 13.27714 a 5.5050598,9.0303812 0 0 0 -5.50682,-9.03256 5.5050598,9.0303812 0 0 0 -1.06115,0.18818 14.182526,23.264709 0 0 0 -13.12309,-14.42385 14.182526,23.264709 0 0 0 -6.04167,2.24637 16.608484,27.244199 0 0 0 -10.56439,-6.22567 z m 5.22443,12.25023 c -8.28322,-0.001 -14.99837,6.71399 -14.99723,14.99721 0.007,5.96018 3.5426,11.35054 9.00689,13.7307 v 6.74768 c 0,0.74952 0.60259,1.35638 1.35211,1.35638 h 9.27644 c 0.74955,0 1.35211,-0.60686 1.35211,-1.35638 v -6.74768 c 5.4643,-2.38016 9.00019,-7.77052 9.0069,-13.7307 10e-4,-8.2832 -6.71406,-14.99835 -14.99722,-14.99721 z m -4.51414,11.84801 c 0.0822,-6.8e-4 0.16299,0.004 0.24389,0.009 0.64654,0.0418 1.24398,0.27025 1.71152,0.6632 0.9351,0.78589 1.36493,2.01339 1.36493,3.31607 v 4.28309 h 2.50311 v -0.64182 c 0,-1.20995 0.45821,-2.27794 1.25797,-2.93955 0.79975,-0.66154 1.91145,-0.8726 2.95238,-0.57763 1.52634,0.43252 2.35528,1.84719 2.4646,3.22195 0.0545,0.68737 -0.0819,1.43043 -0.56053,2.0367 -0.4785,0.60629 -1.29528,0.97129 -2.18648,0.97129 h -1.85701 v 5.68225 a 1.0349997,1.0349997 0 0 1 -1.03546,1.03548 1.0349997,1.0349997 0 0 1 -1.03547,-1.03548 v -5.68225 h -2.50311 v 5.6352 a 1.0349997,1.0349997 0 0 1 -1.03546,1.03546 1.0349997,1.0349997 0 0 1 -1.03548,-1.03546 v -5.6352 h -2.04099 c -1.321,0 -2.43642,-0.64943 -3.00371,-1.57887 -0.56727,-0.92945 -0.68163,-2.01696 -0.59904,-3.08074 0.0826,-1.06379 0.3781,-2.12188 0.81296,-3.03796 0.43489,-0.91608 0.97605,-1.71626 1.83134,-2.17791 0.57266,-0.30916 1.17531,-0.46159 1.75004,-0.46639 z m 0.0984,2.01532 c -0.21316,-0.011 -0.48591,0.0631 -0.86859,0.26957 -0.18183,0.0981 -0.62046,0.56918 -0.94134,1.24513 -0.32088,0.67594 -0.55568,1.53158 -0.61615,2.31054 -0.0605,0.77903 0.0659,1.46152 0.29952,1.84417 0.23356,0.38268 0.48153,0.5862 1.23657,0.5862 h 2.04099 v -4.28309 c 0,-0.82571 -0.30561,-1.46471 -0.62469,-1.7329 -0.15949,-0.13407 -0.31315,-0.229 -0.52631,-0.23962 z m 8.90419,4.03065 c -0.23529,0.0131 -0.43372,0.0992 -0.60331,0.2396 -0.2713,0.22444 -0.5049,0.63389 -0.5049,1.34354 v 0.64182 h 1.85701 c 0.40805,0 0.4867,-0.0905 0.56052,-0.18402 0.0738,-0.0935 0.14306,-0.29387 0.11984,-0.5862 -0.0464,-0.58469 -0.51336,-1.26761 -0.96275,-1.39489 -0.17241,-0.0489 -0.32519,-0.0677 -0.46639,-0.0598 z m -7.7703,20.85917 c -0.41121,0 -0.74451,0.32903 -0.74451,0.74023 0,0.41121 0.3333,0.74451 0.74451,0.74451 h 6.56368 c 0.4112,0 0.74453,-0.3333 0.74453,-0.74451 0,-0.4112 -0.33333,-0.74023 -0.74453,-0.74023 z" />
    </g>
  </g>
</svg>
