<?xml version="1.0" encoding="UTF-8" standalone="no"?>
<!-- Created with Inkscape (http://www.inkscape.org/) -->

<svg
   width="62.145401"
   height="52.488209"
   viewBox="0 0 62.145401 52.488209"
   version="1.1"
   id="svg5"
   sodipodi:docname="logoIcon.svg"
   inkscape:version="1.2 (dc2aedaf03, 2022-05-15)"
   xmlns:inkscape="http://www.inkscape.org/namespaces/inkscape"
   xmlns:sodipodi="http://sodipodi.sourceforge.net/DTD/sodipodi-0.dtd"
   xmlns="http://www.w3.org/2000/svg"
   xmlns:svg="http://www.w3.org/2000/svg">
  <sodipodi:namedview
     id="namedview7"
     pagecolor="#171717"
     bordercolor="#999999"
     borderopacity="1"
     inkscape:pageshadow="0"
     inkscape:pageopacity="0"
     inkscape:pagecheckerboard="0"
     inkscape:document-units="px"
     showgrid="false"
     units="px"
     inkscape:zoom="2.9348958"
     inkscape:cx="32.198758"
     inkscape:cy="9.199645"
     inkscape:window-width="3440"
     inkscape:window-height="1417"
     inkscape:window-x="-8"
     inkscape:window-y="-8"
     inkscape:window-maximized="1"
     inkscape:current-layer="g4036"
     inkscape:object-paths="true"
     inkscape:snap-intersection-paths="true"
     inkscape:snap-smooth-nodes="true"
     inkscape:snap-midpoints="true"
     inkscape:snap-object-midpoints="true"
     showguides="false"
     inkscape:snap-global="true"
     inkscape:showpageshadow="0"
     inkscape:deskcolor="#171717">
    <inkscape:grid
       type="xygrid"
       id="grid836"
       originx="-306.68835"
       originy="-313.61148" />
  </sodipodi:namedview>
  <defs
     id="defs2" />
  <g
     inkscape:label="Layer 1"
     inkscape:groupmode="layer"
     id="layer1"
     transform="translate(-306.68835,-313.61148)">
    <g
       id="g4036"
       style="opacity:1;fill:#ffffff;fill-opacity:1">
      <path
         id="path338"
         style="opacity:1;fill:#ffffff;fill-opacity:1;stroke-width:0.944881;stroke-linecap:round;stroke-linejoin:round;paint-order:fill markers stroke"
         d="m 332.53663,313.61157 a 16.608484,27.244199 0 0 0 -14.03449,12.69522 9.237303,15.152672 0 0 0 -2.57583,-0.60331 9.237303,15.152672 0 0 0 -9.23796,15.15553 h 13.27715 a 17.794313,17.794313 0 0 1 17.79556,-17.79556 17.794313,17.794313 0 0 1 17.79555,17.79556 h 13.27714 a 5.5050598,9.0303812 0 0 0 -5.50682,-9.03256 5.5050598,9.0303812 0 0 0 -1.06115,0.18818 14.182526,23.264709 0 0 0 -13.12309,-14.42385 14.182526,23.264709 0 0 0 -6.04167,2.24637 16.608484,27.244199 0 0 0 -10.56439,-6.22567 z m 5.22443,12.25023 c -8.28322,-0.001 -14.99837,6.71399 -14.99723,14.99721 0.007,5.96018 3.5426,11.35054 9.00689,13.7307 v 6.74768 c 0,0.74952 0.60259,1.35638 1.35211,1.35638 h 9.27644 c 0.74955,0 1.35211,-0.60686 1.35211,-1.35638 v -6.74768 c 5.4643,-2.38016 9.00019,-7.77052 9.0069,-13.7307 10e-4,-8.2832 -6.71406,-14.99835 -14.99722,-14.99721 z m -4.51414,11.84801 c 0.0822,-6.8e-4 0.16299,0.004 0.24389,0.009 0.64654,0.0418 1.24398,0.27025 1.71152,0.6632 0.9351,0.78589 1.36493,2.01339 1.36493,3.31607 v 4.28309 h 2.50311 v -0.64182 c 0,-1.20995 0.45821,-2.27794 1.25797,-2.93955 0.79975,-0.66154 1.91145,-0.8726 2.95238,-0.57763 1.52634,0.43252 2.35528,1.84719 2.4646,3.22195 0.0545,0.68737 -0.0819,1.43043 -0.56053,2.0367 -0.4785,0.60629 -1.29528,0.97129 -2.18648,0.97129 h -1.85701 v 5.68225 a 1.0349997,1.0349997 0 0 1 -1.03546,1.03548 1.0349997,1.0349997 0 0 1 -1.03547,-1.03548 v -5.68225 h -2.50311 v 5.6352 a 1.0349997,1.0349997 0 0 1 -1.03546,1.03546 1.0349997,1.0349997 0 0 1 -1.03548,-1.03546 v -5.6352 h -2.04099 c -1.321,0 -2.43642,-0.64943 -3.00371,-1.57887 -0.56727,-0.92945 -0.68163,-2.01696 -0.59904,-3.08074 0.0826,-1.06379 0.3781,-2.12188 0.81296,-3.03796 0.43489,-0.91608 0.97605,-1.71626 1.83134,-2.17791 0.57266,-0.30916 1.17531,-0.46159 1.75004,-0.46639 z m 0.0984,2.01532 c -0.21316,-0.011 -0.48591,0.0631 -0.86859,0.26957 -0.18183,0.0981 -0.62046,0.56918 -0.94134,1.24513 -0.32088,0.67594 -0.55568,1.53158 -0.61615,2.31054 -0.0605,0.77903 0.0659,1.46152 0.29952,1.84417 0.23356,0.38268 0.48153,0.5862 1.23657,0.5862 h 2.04099 v -4.28309 c 0,-0.82571 -0.30561,-1.46471 -0.62469,-1.7329 -0.15949,-0.13407 -0.31315,-0.229 -0.52631,-0.23962 z m 8.90419,4.03065 c -0.23529,0.0131 -0.43372,0.0992 -0.60331,0.2396 -0.2713,0.22444 -0.5049,0.63389 -0.5049,1.34354 v 0.64182 h 1.85701 c 0.40805,0 0.4867,-0.0905 0.56052,-0.18402 0.0738,-0.0935 0.14306,-0.29387 0.11984,-0.5862 -0.0464,-0.58469 -0.51336,-1.26761 -0.96275,-1.39489 -0.17241,-0.0489 -0.32519,-0.0677 -0.46639,-0.0598 z m -7.7703,20.85917 c -0.41121,0 -0.74451,0.32903 -0.74451,0.74023 0,0.41121 0.3333,0.74451 0.74451,0.74451 h 6.56368 c 0.4112,0 0.74453,-0.3333 0.74453,-0.74451 0,-0.4112 -0.33333,-0.74023 -0.74453,-0.74023 z" />
    </g>
  </g>
</svg>
